# xmcd
# 
# Track frame offsets:
#     150
#     14192
#     26329
#     40208
#     52836
#     67867
#     82399
#     95681
#     109486
#     122203
#     136983
#     151523
#     164125
#     179425
#     192189
#     204951
# 
# Disc length: 2921 seconds
# 
# Revision: 2
# Processed by: cddbd v1.4PL0 Copyright (c) Steve Scherf et al.
# Submitted via: BonkEnc v1.0beta1
# 
DISCID=de0b6710
DTITLE=Breuninger - Lounge Music Vol. 01
DYEAR=1900
DGENRE=Jazz
TTITLE0=Sundown Lounge - Billy Conray Sam Keaton
TTITLE1=Absinthe  - Billy Conray Sam Keaton
TTITLE2=Chilled To Taste - Matthew Vaughan
TTITLE3=Heaven - Charlie Hoskyns-Abrahall
TTITLE4=Tranquility - Rik Carter
TTITLE5=Red Sky - Rick Kenton
TTITLE6=Blue Nights - Rick Kenton
TTITLE7=Slumber - Neil Pollard Adam Salkeld
TTITLE8=Private Passion - Mats Asplen Per Blomqvist
TTITLE9=Castaway - Paul Osborne
TTITLE10=Del Rey - Paul Osborne
TTITLE11=Ocean Sweep - Lyonel Bauchet
TTITLE12=Secret Lover - A Cras
TTITLE13=Thyme Machine - Billy Conray Sam Keaton
TTITLE14=Sea Miner - Rik Carter
TTITLE15=Soft Mass - Rik Carter
EXTD=
EXTT0=
EXTT1=
EXTT2=
EXTT3=
EXTT4=
EXTT5=
EXTT6=
EXTT7=
EXTT8=
EXTT9=
EXTT10=
EXTT11=
EXTT12=
EXTT13=
EXTT14=
EXTT15=
PLAYORDER=
